<mxfile host="Electron" agent="Mozilla/5.0 (Windows NT 10.0; Win64; x64) AppleWebKit/537.36 (KHTML, like Gecko) draw.io/26.2.15 Chrome/134.0.6998.205 Electron/35.2.1 Safari/537.36" version="26.2.15">
  <diagram name="Page-1" id="A_5kkH6jrQyVZneIk4qr">
    <mxGraphModel dx="410" dy="630" grid="1" gridSize="10" guides="1" tooltips="1" connect="1" arrows="1" fold="1" page="1" pageScale="1" pageWidth="827" pageHeight="1169" math="0" shadow="0">
      <root>
        <mxCell id="0" />
        <mxCell id="1" parent="0" />
        <mxCell id="p9QMuhSo1yEkkFU65vJS-10" value="" style="html=1;whiteSpace=wrap;fillColor=none;" vertex="1" parent="1">
          <mxGeometry x="1070" y="280" width="330" height="450" as="geometry" />
        </mxCell>
        <mxCell id="p9QMuhSo1yEkkFU65vJS-11" value="Login" style="ellipse;whiteSpace=wrap;html=1;" vertex="1" parent="1">
          <mxGeometry x="1080" y="291.5" width="140" height="70" as="geometry" />
        </mxCell>
        <mxCell id="p9QMuhSo1yEkkFU65vJS-12" value="Create Reservierung" style="ellipse;whiteSpace=wrap;html=1;" vertex="1" parent="1">
          <mxGeometry x="1080" y="451.5" width="140" height="70" as="geometry" />
        </mxCell>
        <mxCell id="p9QMuhSo1yEkkFU65vJS-13" value="Read Reservierung" style="ellipse;whiteSpace=wrap;html=1;" vertex="1" parent="1">
          <mxGeometry x="1250" y="446.5" width="140" height="70" as="geometry" />
        </mxCell>
        <mxCell id="p9QMuhSo1yEkkFU65vJS-14" value="Update Reservierung" style="ellipse;whiteSpace=wrap;html=1;" vertex="1" parent="1">
          <mxGeometry x="1080" y="531.5" width="140" height="70" as="geometry" />
        </mxCell>
        <mxCell id="p9QMuhSo1yEkkFU65vJS-15" value="Delete Reservierung" style="ellipse;whiteSpace=wrap;html=1;" vertex="1" parent="1">
          <mxGeometry x="1250" y="531.5" width="140" height="70" as="geometry" />
        </mxCell>
        <mxCell id="p9QMuhSo1yEkkFU65vJS-16" value="Read Streckenliste" style="ellipse;whiteSpace=wrap;html=1;" vertex="1" parent="1">
          <mxGeometry x="1080" y="651.5" width="140" height="70" as="geometry" />
        </mxCell>
        <mxCell id="p9QMuhSo1yEkkFU65vJS-17" value="Create Account" style="ellipse;whiteSpace=wrap;html=1;" vertex="1" parent="1">
          <mxGeometry x="1241" y="291.5" width="140" height="70" as="geometry" />
        </mxCell>
        <mxCell id="p9QMuhSo1yEkkFU65vJS-18" value="Update Account" style="ellipse;whiteSpace=wrap;html=1;" vertex="1" parent="1">
          <mxGeometry x="1080" y="371.5" width="140" height="70" as="geometry" />
        </mxCell>
        <mxCell id="p9QMuhSo1yEkkFU65vJS-19" value="&lt;font style=&quot;font-size: 24px;&quot;&gt;&lt;b&gt;Ferry&lt;/b&gt;&lt;/font&gt;" style="text;html=1;align=center;verticalAlign=middle;resizable=0;points=[];autosize=1;strokeColor=none;fillColor=none;" vertex="1" parent="1">
          <mxGeometry x="1070" y="240" width="80" height="40" as="geometry" />
        </mxCell>
        <mxCell id="p9QMuhSo1yEkkFU65vJS-20" value="Customer" style="shape=umlActor;verticalLabelPosition=bottom;verticalAlign=top;html=1;outlineConnect=0;" vertex="1" parent="1">
          <mxGeometry x="930" y="441.5" width="30" height="63" as="geometry" />
        </mxCell>
        <mxCell id="p9QMuhSo1yEkkFU65vJS-26" value="" style="endArrow=none;html=1;rounded=0;exitX=0.5;exitY=0.5;exitDx=0;exitDy=0;exitPerimeter=0;entryX=0;entryY=0.5;entryDx=0;entryDy=0;" edge="1" parent="1" source="p9QMuhSo1yEkkFU65vJS-20" target="p9QMuhSo1yEkkFU65vJS-15">
          <mxGeometry width="50" height="50" relative="1" as="geometry">
            <mxPoint x="890" y="386.5" as="sourcePoint" />
            <mxPoint x="940" y="336.5" as="targetPoint" />
          </mxGeometry>
        </mxCell>
        <mxCell id="p9QMuhSo1yEkkFU65vJS-27" value="" style="endArrow=none;html=1;rounded=0;exitX=0.5;exitY=0.5;exitDx=0;exitDy=0;exitPerimeter=0;entryX=0;entryY=0.5;entryDx=0;entryDy=0;" edge="1" parent="1" source="p9QMuhSo1yEkkFU65vJS-20" target="p9QMuhSo1yEkkFU65vJS-13">
          <mxGeometry width="50" height="50" relative="1" as="geometry">
            <mxPoint x="900" y="396.5" as="sourcePoint" />
            <mxPoint x="950" y="346.5" as="targetPoint" />
          </mxGeometry>
        </mxCell>
        <mxCell id="p9QMuhSo1yEkkFU65vJS-28" value="" style="endArrow=none;html=1;rounded=0;exitX=0.5;exitY=0.5;exitDx=0;exitDy=0;exitPerimeter=0;entryX=0;entryY=0.5;entryDx=0;entryDy=0;" edge="1" parent="1" source="p9QMuhSo1yEkkFU65vJS-20" target="p9QMuhSo1yEkkFU65vJS-17">
          <mxGeometry width="50" height="50" relative="1" as="geometry">
            <mxPoint x="910" y="406.5" as="sourcePoint" />
            <mxPoint x="960" y="356.5" as="targetPoint" />
          </mxGeometry>
        </mxCell>
        <mxCell id="p9QMuhSo1yEkkFU65vJS-29" value="" style="endArrow=none;html=1;rounded=0;exitX=0.5;exitY=0.5;exitDx=0;exitDy=0;exitPerimeter=0;entryX=0;entryY=0.5;entryDx=0;entryDy=0;" edge="1" parent="1" source="p9QMuhSo1yEkkFU65vJS-20" target="p9QMuhSo1yEkkFU65vJS-11">
          <mxGeometry width="50" height="50" relative="1" as="geometry">
            <mxPoint x="920" y="416.5" as="sourcePoint" />
            <mxPoint x="970" y="366.5" as="targetPoint" />
          </mxGeometry>
        </mxCell>
        <mxCell id="p9QMuhSo1yEkkFU65vJS-30" value="" style="endArrow=none;html=1;rounded=0;exitX=0.5;exitY=0.5;exitDx=0;exitDy=0;exitPerimeter=0;entryX=0;entryY=0.5;entryDx=0;entryDy=0;" edge="1" parent="1" source="p9QMuhSo1yEkkFU65vJS-20" target="p9QMuhSo1yEkkFU65vJS-18">
          <mxGeometry width="50" height="50" relative="1" as="geometry">
            <mxPoint x="835" y="462" as="sourcePoint" />
            <mxPoint x="1090" y="337" as="targetPoint" />
          </mxGeometry>
        </mxCell>
        <mxCell id="p9QMuhSo1yEkkFU65vJS-31" value="" style="endArrow=none;html=1;rounded=0;exitX=0.5;exitY=0.5;exitDx=0;exitDy=0;exitPerimeter=0;entryX=0;entryY=0.5;entryDx=0;entryDy=0;" edge="1" parent="1" source="p9QMuhSo1yEkkFU65vJS-20" target="p9QMuhSo1yEkkFU65vJS-12">
          <mxGeometry width="50" height="50" relative="1" as="geometry">
            <mxPoint x="835" y="462" as="sourcePoint" />
            <mxPoint x="1090" y="417" as="targetPoint" />
          </mxGeometry>
        </mxCell>
        <mxCell id="p9QMuhSo1yEkkFU65vJS-32" value="" style="endArrow=none;html=1;rounded=0;exitX=0.5;exitY=0.5;exitDx=0;exitDy=0;exitPerimeter=0;entryX=0;entryY=0.5;entryDx=0;entryDy=0;" edge="1" parent="1" source="p9QMuhSo1yEkkFU65vJS-20" target="p9QMuhSo1yEkkFU65vJS-14">
          <mxGeometry width="50" height="50" relative="1" as="geometry">
            <mxPoint x="835" y="462" as="sourcePoint" />
            <mxPoint x="1090" y="497" as="targetPoint" />
          </mxGeometry>
        </mxCell>
        <mxCell id="p9QMuhSo1yEkkFU65vJS-33" value="" style="endArrow=none;html=1;rounded=0;exitX=0.5;exitY=0.5;exitDx=0;exitDy=0;exitPerimeter=0;entryX=0;entryY=0.5;entryDx=0;entryDy=0;" edge="1" parent="1" source="p9QMuhSo1yEkkFU65vJS-20" target="p9QMuhSo1yEkkFU65vJS-16">
          <mxGeometry width="50" height="50" relative="1" as="geometry">
            <mxPoint x="835" y="462" as="sourcePoint" />
            <mxPoint x="1090" y="577" as="targetPoint" />
          </mxGeometry>
        </mxCell>
        <mxCell id="p9QMuhSo1yEkkFU65vJS-34" value="Authentication" style="shape=umlActor;verticalLabelPosition=bottom;verticalAlign=top;html=1;outlineConnect=0;" vertex="1" parent="1">
          <mxGeometry x="1250" y="130" width="30" height="63" as="geometry" />
        </mxCell>
        <mxCell id="p9QMuhSo1yEkkFU65vJS-36" value="" style="endArrow=none;html=1;rounded=0;exitX=1;exitY=0;exitDx=0;exitDy=0;entryX=0.5;entryY=0.5;entryDx=0;entryDy=0;entryPerimeter=0;" edge="1" parent="1" source="p9QMuhSo1yEkkFU65vJS-11" target="p9QMuhSo1yEkkFU65vJS-34">
          <mxGeometry width="50" height="50" relative="1" as="geometry">
            <mxPoint x="955" y="483" as="sourcePoint" />
            <mxPoint x="1090" y="337" as="targetPoint" />
          </mxGeometry>
        </mxCell>
        <mxCell id="p9QMuhSo1yEkkFU65vJS-37" value="DB" style="shape=umlActor;verticalLabelPosition=bottom;verticalAlign=top;html=1;outlineConnect=0;" vertex="1" parent="1">
          <mxGeometry x="1440" y="340" width="30" height="63" as="geometry" />
        </mxCell>
      </root>
    </mxGraphModel>
  </diagram>
</mxfile>
